<?xml version="1.0" encoding="utf-8"?>
<!-- Generator: Adobe Illustrator 16.0.0, SVG Export Plug-In . SVG Version: 6.00 Build 0)  -->
<!DOCTYPE svg PUBLIC "-//W3C//DTD SVG 1.1//EN" "http://www.w3.org/Graphics/SVG/1.1/DTD/svg11.dtd">
<svg version="1.1" id="Layer_1" xmlns="http://www.w3.org/2000/svg" xmlns:xlink="http://www.w3.org/1999/xlink" x="0px" y="0px"
	 width="38.122px" height="37.178px" viewBox="0 0 38.122 37.178" enable-background="new 0 0 38.122 37.178" xml:space="preserve">
<g>
	<polyline fill="none" stroke="#FFFFFF" stroke-miterlimit="10" points="12.076,1.169 1.576,1.169 1.576,11.669 	"/>
	<polyline fill="none" stroke="#FFFFFF" stroke-miterlimit="10" points="36.576,11.669 36.576,1.169 26.076,1.169 	"/>
	<polyline fill="none" stroke="#FFFFFF" stroke-miterlimit="10" points="1.576,25.669 1.576,36.169 12.076,36.169 	"/>
	<polyline fill="none" stroke="#FFFFFF" stroke-miterlimit="10" points="26.076,36.169 36.576,36.169 36.576,25.669 	"/>
</g>
<g>
	<path fill="#FFFFFF" d="M25.443,26.194c-0.307,0-0.606-0.127-0.814-0.345l-3.102-3.093c-1.058,0.733-2.324,1.122-3.608,1.122
		c-3.519,0-6.367-2.85-6.367-6.367s2.848-6.366,6.367-6.366c3.518,0,6.367,2.849,6.367,6.366c0,1.284-0.389,2.551-1.121,3.609
		l3.102,3.102c0.208,0.207,0.334,0.507,0.334,0.813C26.6,25.668,26.076,26.194,25.443,26.194z M17.918,13.46
		c-2.234,0-4.052,1.817-4.052,4.051c0,2.234,1.817,4.052,4.052,4.052c2.234,0,4.051-1.817,4.051-4.052
		C21.97,15.278,20.152,13.46,17.918,13.46z"/>
</g>
</svg>
